<svg width="28" height="26" viewBox="0 0 28 26" fill="none" xmlns="http://www.w3.org/2000/svg">
<path d="M6.25 26H0.4375V8.62793H6.25V26ZM3.3125 6.30391C1.5 6.30391 0 4.8514 0 3.10838C0 2.00447 0.625 0.958659 1.625 0.435754C2.6875 -0.145251 4 -0.145251 5 0.435754C6.0625 0.958659 6.6875 2.00447 6.6875 3.10838C6.6875 4.8514 5.1875 6.30391 3.3125 6.30391ZM27.9375 26H22.1875V17.5754C22.1875 15.5419 22.125 12.9855 19.125 12.9855C16.125 12.9855 15.6875 15.1352 15.6875 17.4011V26H9.875V8.62793H15.4375V11.0101H15.5C16.3125 9.67374 18.1875 8.22123 21 8.22123C26.875 8.22123 28 11.8235 28 16.4715V26H27.9375Z" fill="currentColor"/>
</svg>
