<?xml version="1.0" encoding="UTF-8"?>
<svg xmlns="http://www.w3.org/2000/svg" style="display: none;">
<symbol id="xmark" viewBox="0 0 384 512">
<path d="M345 137c9.4-9.4 9.4-24.6 0-33.9s-24.6-9.4-33.9 0l-119 119L73 103c-9.4-9.4-24.6-9.4-33.9 0s-9.4 24.6 0 33.9l119 119L39 375c-9.4 9.4-9.4 24.6 0 33.9s24.6 9.4 33.9 0l119-119L311 409c9.4 9.4 24.6 9.4 33.9 0s9.4-24.6 0-33.9l-119-119L345 137z"/>
</symbol>
<symbol id="right-to-bracket" viewBox="0 0 512 512">
<path d="M192 365.8L302 256 192 146.2l0 53.8c0 13.3-10.7 24-24 24L48 224l0 64 120 0c13.3 0 24 10.7 24 24l0 53.8zM352 256c0 11.5-4.6 22.5-12.7 30.6L223.2 402.4c-8.7 8.7-20.5 13.6-32.8 13.6c-25.6 0-46.4-20.8-46.4-46.4l0-33.6-96 0c-26.5 0-48-21.5-48-48l0-64c0-26.5 21.5-48 48-48l96 0 0-33.6c0-25.6 20.8-46.4 46.4-46.4c12.3 0 24.1 4.9 32.8 13.6L339.3 225.4c8.1 8.1 12.7 19.1 12.7 30.6zm-8 176l80 0c22.1 0 40-17.9 40-40l0-272c0-22.1-17.9-40-40-40l-80 0c-13.3 0-24-10.7-24-24s10.7-24 24-24l80 0c48.6 0 88 39.4 88 88l0 272c0 48.6-39.4 88-88 88l-80 0c-13.3 0-24-10.7-24-24s10.7-24 24-24z"/>
</symbol>
<symbol id="bars" viewBox="0 0 448 512">
<path d="M0 88C0 74.7 10.7 64 24 64l400 0c13.3 0 24 10.7 24 24s-10.7 24-24 24L24 112C10.7 112 0 101.3 0 88zM0 248c0-13.3 10.7-24 24-24l400 0c13.3 0 24 10.7 24 24s-10.7 24-24 24L24 272c-13.3 0-24-10.7-24-24zM448 408c0 13.3-10.7 24-24 24L24 432c-13.3 0-24-10.7-24-24s10.7-24 24-24l400 0c13.3 0 24 10.7 24 24z"/>
</symbol>
<symbol id="envelope" viewBox="0 0 512 512">
<path d="M64 112c-8.8 0-16 7.2-16 16l0 22.1L220.5 291.7c20.7 17 50.4 17 71.1 0L464 150.1l0-22.1c0-8.8-7.2-16-16-16L64 112zM48 212.2L48 384c0 8.8 7.2 16 16 16l384 0c8.8 0 16-7.2 16-16l0-171.8L322 328.8c-38.4 31.5-93.7 31.5-132 0L48 212.2zM0 128C0 92.7 28.7 64 64 64l384 0c35.3 0 64 28.7 64 64l0 256c0 35.3-28.7 64-64 64L64 448c-35.3 0-64-28.7-64-64L0 128z"/>
</symbol>
<symbol id="atom" viewBox="0 0 512 512">
<path d="M306.3 417.2c-16.3-4.7-33.1-10.9-50.3-18.4c-17.1 7.5-34 13.6-50.3 18.4C224.1 455.5 243.1 464 256 464s31.9-8.5 50.3-46.8zM293 325.7c14.8-8.9 28.7-18.1 41.4-27.6c1-13.5 1.6-27.6 1.6-42.1s-.5-28.6-1.6-42.1c-12.8-9.4-26.6-18.7-41.4-27.6c-12.5-7.5-24.9-14.2-37-20.2c-12.1 6-24.5 12.7-37 20.2c-14.8 8.9-28.7 18.1-41.4 27.6c-1 13.5-1.6 27.6-1.6 42.1s.5 28.6 1.6 42.1c12.8 9.4 26.6 18.7 41.4 27.6c12.5 7.5 24.9 14.2 37 20.2c12.1-6 24.5-12.7 37-20.2zm120.5-32.2c-10.2 10.2-21.3 20.2-33.4 29.9c-2.4 20.1-5.8 39.2-10.3 57c37.2 2.2 51.9-9.1 57.8-19.7c6.5-11.7 8.2-32.8-14.1-67.2zM469.6 128c20.7 37.1 9.4 82.8-23.6 128c33 45.2 44.3 90.9 23.6 128c-20.2 36.3-62.5 49.3-115.2 43.2c-22 52.1-55.6 84.8-98.4 84.8s-76.4-32.7-98.4-84.8c-52.7 6.1-95-6.8-115.2-43.2C21.7 346.9 33 301.2 66 256c-33-45.2-44.3-90.9-23.6-128c20.2-36.3 62.5-49.3 115.2-43.2C179.6 32.7 213.2 0 256 0s76.4 32.7 98.4 84.8c52.7-6.1 95 6.8 115.2 43.2zM84.4 360.7c5.9 10.6 20.6 22 57.8 19.7c-4.5-17.8-7.9-36.9-10.3-57c-12-9.7-23.2-19.8-33.4-29.9C76.2 327.8 77.8 349 84.4 360.7zM98.5 218.5c10.2-10.2 21.3-20.2 33.4-29.9c2.4-20.1 5.8-39.2 10.3-57c-37.2-2.3-51.9 9.1-57.8 19.7c-6.5 11.7-8.2 32.8 14.1 67.2zM256 113.2c17.1-7.5 34-13.6 50.3-18.4C287.9 56.5 268.9 48 256 48s-31.9 8.5-50.3 46.8c16.3 4.7 33.1 10.9 50.3 18.4zm124.2 75.4c12 9.7 23.2 19.8 33.4 29.9c22.3-34.3 20.6-55.5 14.1-67.2c-5.9-10.6-20.6-22-57.8-19.7c4.5 17.8 7.9 36.9 10.3 57zM256 224a32 32 0 1 1 0 64 32 32 0 1 1 0-64z"/>
</symbol>
<symbol id="moon" viewBox="0 0 384 512">
<path d="M144.7 98.7c-21 34.1-33.1 74.3-33.1 117.3c0 98 62.8 181.4 150.4 211.7c-12.4 2.8-25.3 4.3-38.6 4.3C126.6 432 48 353.3 48 256c0-68.9 39.4-128.4 96.8-157.3zm62.1-66C91.1 41.2 0 137.9 0 256C0 379.7 100 480 223.5 480c47.8 0 92-15 128.4-40.6c1.9-1.3 3.7-2.7 5.5-4c4.8-3.6 9.4-7.4 13.9-11.4c2.7-2.4 5.3-4.8 7.9-7.3c5-4.9 6.3-12.5 3.1-18.7s-10.1-9.7-17-8.5c-3.7 .6-7.4 1.2-11.1 1.6c-5 .5-10.1 .9-15.3 1c-1.2 0-2.5 0-3.7 0l-.3 0c-96.8-.2-175.2-78.9-175.2-176c0-54.8 24.9-103.7 64.1-136c1-.9 2.1-1.7 3.2-2.6c4-3.2 8.2-6.2 12.5-9c3.1-2 6.3-4 9.6-5.8c6.1-3.5 9.2-10.5 7.7-17.3s-7.3-11.9-14.3-12.5c-3.6-.3-7.1-.5-10.7-.6c-2.7-.1-5.5-.1-8.2-.1c-3.3 0-6.5 .1-9.8 .2c-2.3 .1-4.6 .2-6.9 .4z"/>
</symbol>
<symbol id="sun-bright" viewBox="0 0 512 512">
<path d="M280 24l0 64c0 13.3-10.7 24-24 24s-24-10.7-24-24l0-64c0-13.3 10.7-24 24-24s24 10.7 24 24zm157 84.9l-45.3 45.3c-9.4 9.4-24.6 9.4-33.9 0s-9.4-24.6 0-33.9L403.1 75c9.4-9.4 24.6-9.4 33.9 0s9.4 24.6 0 33.9zM108.9 75l45.3 45.3c9.4 9.4 9.4 24.6 0 33.9s-24.6 9.4-33.9 0L75 108.9c-9.4-9.4-9.4-24.6 0-33.9s24.6-9.4 33.9 0zM24 232l64 0c13.3 0 24 10.7 24 24s-10.7 24-24 24l-64 0c-13.3 0-24-10.7-24-24s10.7-24 24-24zm400 0l64 0c13.3 0 24 10.7 24 24s-10.7 24-24 24l-64 0c-13.3 0-24-10.7-24-24s10.7-24 24-24zM154.2 391.8L108.9 437c-9.4 9.4-24.6 9.4-33.9 0s-9.4-24.6 0-33.9l45.3-45.3c9.4-9.4 24.6-9.4 33.9 0s9.4 24.6 0 33.9zm237.6-33.9L437 403.1c9.4 9.4 9.4 24.6 0 33.9s-24.6 9.4-33.9 0l-45.3-45.3c-9.4-9.4-9.4-24.6 0-33.9s24.6-9.4 33.9 0zM280 424l0 64c0 13.3-10.7 24-24 24s-24-10.7-24-24l0-64c0-13.3 10.7-24 24-24s24 10.7 24 24zm40-168a64 64 0 1 0 -128 0 64 64 0 1 0 128 0zm-176 0a112 112 0 1 1 224 0 112 112 0 1 1 -224 0z"/>
</symbol>
<symbol id="calendar-pen" viewBox="0 0 448 512">
<path d="M128 0c13.3 0 24 10.7 24 24l0 40 144 0 0-40c0-13.3 10.7-24 24-24s24 10.7 24 24l0 40 40 0c35.3 0 64 28.7 64 64l0 16 0 48 0 256c0 35.3-28.7 64-64 64L64 512c-35.3 0-64-28.7-64-64L0 192l0-48 0-16C0 92.7 28.7 64 64 64l40 0 0-40c0-13.3 10.7-24 24-24zM400 192L48 192l0 256c0 8.8 7.2 16 16 16l320 0c8.8 0 16-7.2 16-16l0-256zm-91.2 51c14.7 14.7 14.7 38.6 0 53.3l-14.9 14.9L240.6 258 255.5 243c14.7-14.7 38.6-14.7 53.3 0zM146.1 352.5L218 280.6l53.3 53.3-71.9 71.9c-4.1 4.1-9.2 7-14.9 8.4l-36.6 9.2c-5.5 1.4-11.2-.2-15.2-4.2s-5.6-9.7-4.2-15.2l9.2-36.6c1.4-5.6 4.3-10.8 8.4-14.9z"/>
</symbol>
<symbol id="phone" viewBox="0 0 512 512">
<path d="M375.8 275.2c-16.4-7-35.4-2.4-46.7 11.4l-33.2 40.6c-46-26.7-84.4-65.1-111.1-111.1L225.3 183c13.8-11.3 18.5-30.3 11.4-46.7l-48-112C181.2 6.7 162.3-3.1 143.6 .9l-112 24C13.2 28.8 0 45.1 0 64c0 0 0 0 0 0C0 295.2 175.2 485.6 400.1 509.5c9.8 1 19.6 1.8 29.6 2.2c0 0 0 0 0 0c0 0 .1 0 .1 0c6.1 .2 12.1 .4 18.2 .4c0 0 0 0 0 0c18.9 0 35.2-13.2 39.1-31.6l24-112c4-18.7-5.8-37.6-23.4-45.1l-112-48zM441.5 464C225.8 460.5 51.5 286.2 48.1 70.5l99.2-21.3 43 100.4L154.4 179c-18.2 14.9-22.9 40.8-11.1 61.2c30.9 53.3 75.3 97.7 128.6 128.6c20.4 11.8 46.3 7.1 61.2-11.1l29.4-35.9 100.4 43L441.5 464zM48 64s0 0 0 0s0 0 0 0s0 0 0 0s0 0 0 0s0 0 0 0s0 0 0 0s0 0 0 0s0 0 0 0s0 0 0 0s0 0 0 0s0 0 0 0s0 0 0 0s0 0 0 0s0 0 0 0s0 0 0 0s0 0 0 0s0 0 0 0s0 0 0 0s0 0 0 0s0 0 0 0s0 0 0 0s0 0 0 0s0 0 0 0s0 0 0 0z"/>
</symbol>
</svg>