<svg width="26" height="30" viewBox="0 0 26 30" fill="none" xmlns="http://www.w3.org/2000/svg">
<path d="M19.8305 13.7214C19.9564 13.7838 20.0823 13.8462 20.2082 13.9085C22.0969 14.7817 23.4189 16.0915 24.1114 17.7131C25.1186 20.0208 25.1816 23.7006 22.2228 26.6944C19.9564 28.9397 17.1864 29.9376 13.2203 30C8.81356 29.9376 5.41404 28.4407 3.1477 25.5717C1.07022 23.0146 0.062954 19.4595 0 15.0312V14.9688C0.062954 10.5405 1.07022 6.98545 3.08475 4.42827C5.41404 1.55925 8.81356 0.0623701 13.2203 0C17.6901 0.0623701 21.0896 1.49688 23.4818 4.3659C24.615 5.80042 25.4964 7.48441 26 9.48025L23.4818 10.1663C23.0412 8.5447 22.3487 7.17256 21.4673 6.0499C19.5787 3.86694 16.8717 2.68191 13.2203 2.68191C9.63196 2.68191 6.92494 3.86694 5.16223 6.0499C3.52542 8.17048 2.64407 11.1642 2.64407 14.9688C2.64407 18.8358 3.52542 21.8295 5.16223 23.9501C6.92494 26.1331 9.63196 27.3181 13.2203 27.3181C16.431 27.3181 18.5714 26.5696 20.3971 24.7609C22.4116 22.7651 22.3487 20.2703 21.7191 18.7734C21.3414 17.9002 20.6489 17.1518 19.7046 16.5904C19.5157 18.2744 18.9492 19.6466 18.1937 20.6445C17.0605 22.0166 15.5496 22.7651 13.5981 22.8898C12.0872 22.9522 10.7022 22.578 9.56901 21.8919C8.24697 21.0187 7.49153 19.7089 7.42857 18.1497C7.23971 15.1559 9.63196 12.973 13.4092 12.7859C14.7312 12.7235 15.9903 12.7859 17.1235 12.973C16.9976 12.0374 16.6828 11.289 16.1792 10.7277C15.5496 10.0416 14.6053 9.66736 13.2833 9.66736C12.2131 9.66736 10.8281 9.91684 9.88378 11.289L7.74334 9.7921C8.93947 7.98337 10.891 6.98545 13.2833 6.98545C17.2494 7.04782 19.5787 9.48025 19.8305 13.7214ZM10.0097 18.0249C10.0726 19.5842 11.7724 20.3326 13.4722 20.2079C15.046 20.1455 16.8717 19.5218 17.1864 15.6549C16.368 15.4678 15.4237 15.4054 14.4794 15.4054C14.1646 15.4054 13.8499 15.4054 13.5351 15.4054C10.8281 15.5301 9.94673 16.8399 10.0097 18.0249Z" fill="currentColor"/>
</svg>
